<svg xmlns="http://www.w3.org/2000/svg" xmlns:xlink="http://www.w3.org/1999/xlink" viewBox="0 0 103.54 90"><defs><style>.cls-1,.cls-10,.cls-11,.cls-4,.cls-5,.cls-6{fill:none;}.cls-2{isolation:isolate;}.cls-3{clip-path:url(#clip-path);}.cls-10,.cls-11,.cls-4,.cls-5,.cls-6{stroke:#2d2047;stroke-linecap:round;stroke-linejoin:round;}.cls-4{stroke-width:2.97px;}.cls-5{stroke-width:2.96px;}.cls-6{stroke-width:3.03px;}.cls-7{mix-blend-mode:multiply;}.cls-8{clip-path:url(#clip-path-4);}.cls-9{fill:#9F9E9E;}.cls-10{stroke-width:2.12px;}.cls-11{stroke-width:2.05px;}</style><clipPath id="clip-path"><rect class="cls-1" width="103.54" height="90"/></clipPath><clipPath id="clip-path-4"><rect class="cls-1" x="0.24" width="101.38" height="67.26"/></clipPath></defs><g class="cls-2"><g id="Ebene_1" data-name="Ebene 1"><g id="Logo_farbig" data-name="Logo farbig"><g class="cls-3"><g class="cls-3"><g class="cls-3"><path class="cls-4" d="M42.06,38a9.59,9.59,0,1,1-9.58-9.33A9.45,9.45,0,0,1,42.06,38Z"/><path class="cls-5" d="M77.25,38a9.56,9.56,0,1,1-9.56-9.31A9.43,9.43,0,0,1,77.25,38Z"/><polyline class="cls-6" points="60.45 22.82 48.99 39 32.29 38.23 44.62 26.23 60.52 22.82"/><line class="cls-6" x1="42.19" y1="19.08" x2="48.58" y2="38.51"/><polyline class="cls-6" points="67.72 38.05 60.04 19.57 65.23 17.3"/><line class="cls-6" x1="45.11" y1="18.6" x2="38.29" y2="18.6"/><g class="cls-7"><g class="cls-8"><path class="cls-9" d="M.24,67.26H101.62V0H.24ZM68,59.8a26.07,26.07,0,0,1-17.06-6.33,26.17,26.17,0,1,1,0-39.68A26.17,26.17,0,1,1,68,59.8"/></g></g><path class="cls-10" d="M35.38,85.44c-.7,2.1-2.6,3.4-4.65,2.7a3.81,3.81,0,0,1-2.18-5,3.69,3.69,0,0,1,4.71-2.59C35.31,81.23,36.07,83.34,35.38,85.44Z"/><path class="cls-10" d="M21.24,84.92c-2.64,3-5.78,3.92-7.83,3.22s-2.17-2.78-1.47-4.88a4.08,4.08,0,0,1,4-2.73c1.47.24,2.93,2.46-.53,4.12-1.6.76-5.11.55-7.48-3"/><path class="cls-10" d="M21.51,84.65c6.2-6.09,5.43-12,3.69-11.42s-2.73,3.7-3.11,5.64c-.54,2.75-.86,5.71.3,8.25.12.24.27.51.53.57a.84.84,0,0,0,.53-.11c1.1-.54,5.41-5.19,6.18-6.16"/><path class="cls-10" d="M2.44,80.83c-1.13.88-2.72,7.91.66,7.32,3.19-.55,4.56-4.06,4.55-6.64"/><path class="cls-11" d="M45.78,85.34c-.7,2.1-2.51,3.43-4.43,2.78s-2.66-2.85-2-5,2.56-3.32,4.48-2.66S46.48,83.24,45.78,85.34Z"/><path class="cls-10" d="M67.63,82.15c-2,4.34-6.72,6.9-8.77,6.2a2.55,2.55,0,0,1-1.55-1.29,4.91,4.91,0,0,1,.08-3.59,4.08,4.08,0,0,1,4-2.73c1.47.24,2.53,1.61-.65,4.08-1,.8-4.81,3.16-7.33,3.28"/><path class="cls-10" d="M95.64,85.23c-2.64,3-5.77,3.92-7.82,3.22s-2.17-2.78-1.47-4.88a4.08,4.08,0,0,1,4-2.73c1.48.24,2.94,2.46-.53,4.12-1.6.76-5.1.55-7.47-3"/><path class="cls-10" d="M76.84,81.14c-1.13.88-2.72,7.91.67,7.32,3.19-.55,4.55-4.06,4.54-6.65"/><path class="cls-10" d="M40.36,75.09a78.73,78.73,0,0,1-1.87,12.65"/><path class="cls-10" d="M53.64,80.07a2.57,2.57,0,0,0-2.4.45A3,3,0,0,0,49.85,82c-.53,1.55,1.23,3.08,1,4.71a2.07,2.07,0,0,1-2.29,1.74"/><path class="cls-10" d="M65.51,88.94q1-3.39,2.17-6.71a2.61,2.61,0,0,1,.95-1.48,2.09,2.09,0,0,1,1.1-.24,3.7,3.7,0,0,1,1.8.42,1.9,1.9,0,0,1,.39,3.14,4.08,4.08,0,0,1-1.59.91,8.15,8.15,0,0,1-2.81.45l3,2a4.94,4.94,0,0,0,2.78,1.1"/><path class="cls-10" d="M94.73,88.94c.66-2.26,1.39-4.5,2.17-6.71a2.61,2.61,0,0,1,.95-1.48A2.12,2.12,0,0,1,99,80.51a3.73,3.73,0,0,1,1.8.42,2,2,0,0,1,1,1.47,2.1,2.1,0,0,1-.65,1.67,4.08,4.08,0,0,1-1.59.91,8.15,8.15,0,0,1-2.81.45l3,2a4.94,4.94,0,0,0,2.78,1.1"/><path class="cls-10" d="M45.35,81.53a19,19,0,0,0,5.46,1.9c1.39,0,4.52-1.17,3.2-3.24"/><path class="cls-10" d="M32.36,80.43c2.52,0,5.41,2.2,8.06-5"/></g></g></g></g></g></g></svg>