<svg xmlns="http://www.w3.org/2000/svg" width="247" height="27" viewBox="0 0 247 27"><defs><linearGradient id="logo-grad" x1="100%" x2="0%" y1="51.408%" y2="48.592%"><stop offset="0%" stop-color="#FFB400"></stop><stop offset="100%" stop-color="#FF179B"></stop></linearGradient></defs><g fill="none" fill-rule="evenodd"><path id="posmo-name" fill="url(#logo-grad)" d="M0 23.033V.967C0 .633.268.333.636.333h8.067c4.117 0 7.498 3.334 7.498 7.367 0 4.133-3.38 7.5-7.464 7.5H5.222v7.833a.657.657 0 0 1-.636.634H.636A.634.634 0 0 1 0 23.033zm5.222-12.7h3.18c1.44 0 2.644-1.133 2.644-2.633 0-1.4-1.205-2.467-2.644-2.467h-3.18v5.1zm19.482 1.7C24.704 5.367 30.026 0 36.72 0c6.694 0 12.05 5.367 12.05 12.033C48.771 18.7 43.415 24 36.721 24c-6.695 0-12.017-5.3-12.017-11.967zm5.355 0c0 3.634 3.013 6.634 6.662 6.634 3.682 0 6.694-3 6.694-6.634 0-3.666-3.012-6.7-6.694-6.7-3.649 0-6.662 3.034-6.662 6.7zm28.286 9.4c-.335-.333-.435-.466-.168-.933l1.574-2.767c.267-.433.903-.366 1.138-.2.134.067 2.544 1.834 4.753 1.834 1.339 0 2.31-.834 2.31-2 0-1.4-1.172-2.467-3.448-3.367-2.879-1.133-6.494-3.367-6.494-7.367 0-3.3 2.578-6.633 7.733-6.633 3.48 0 6.159 1.767 7.163 2.5.402.233.335.833.2 1.067L71.4 6.133c-.235.367-.837.667-1.139.434-.3-.167-2.744-2-4.786-2-1.205 0-2.11.8-2.11 1.7 0 1.233 1.005 2.166 3.65 3.233 2.61 1.033 6.761 3.067 6.761 7.6 0 3.433-2.979 6.9-7.9 6.9-4.351 0-6.761-1.8-7.531-2.567zm24.737 1.5l3.782-22.4c.034-.3.335-.533.603-.533h.536c.167 0 .468.133.569.333l7.766 14.4h.066l7.766-14.4c.1-.2.402-.333.57-.333h.535c.268 0 .57.233.603.533l3.782 22.4c.067.434-.234.734-.636.734h-3.95c-.301 0-.602-.267-.636-.534l-1.506-10.3h-.067l-5.624 10.8c-.1.2-.401.367-.569.367h-.602c-.201 0-.469-.167-.57-.367l-5.656-10.8h-.067l-1.473 10.3c-.034.267-.301.534-.636.534h-3.95c-.402 0-.703-.3-.636-.734zm35.85-10.9C118.932 5.367 124.255 0 130.95 0 137.644 0 143 5.367 143 12.033 143 18.7 137.644 24 130.95 24c-6.695 0-12.018-5.3-12.018-11.967zm5.356 0c0 3.634 3.013 6.634 6.661 6.634 3.683 0 6.695-3 6.695-6.634 0-3.666-3.012-6.7-6.695-6.7-3.648 0-6.66 3.034-6.66 6.7z"></path><g fill="#C4C6D3"><path d="M185.46 11.278a.93.93 0 0 1 .313.73V22.41c0 .313-.098.563-.295.748-.197.186-.458.278-.783.278s-.586-.092-.783-.278c-.197-.185-.295-.435-.295-.748v-.434a2.723 2.723 0 0 1-1.105 1.113c-.48.266-1.029.4-1.643.4-.73 0-1.383-.186-1.957-.557-.574-.371-1.02-.896-1.34-1.574-.318-.678-.477-1.458-.477-2.34 0-.88.159-1.651.478-2.312.319-.661.762-1.171 1.33-1.53.569-.36 1.224-.54 1.966-.54.614 0 1.16.128 1.635.383.475.255.84.614 1.095 1.078v-4.122c0-.29.096-.525.287-.704.192-.18.45-.27.774-.27.325 0 .592.093.8.278zm-2.409 9.81c.377-.476.566-1.154.566-2.035 0-.882-.189-1.557-.566-2.027-.376-.47-.907-.704-1.59-.704-.697 0-1.236.232-1.618.696-.383.464-.574 1.13-.574 2 0 .881.191 1.565.574 2.052.382.487.916.73 1.6.73.695 0 1.232-.237 1.608-.713zm11.288-5.575c.574.586.86 1.476.86 2.67v4.244c0 .313-.092.56-.277.739-.186.18-.44.27-.766.27-.301 0-.547-.093-.739-.279-.191-.185-.287-.429-.287-.73v-.383a2.27 2.27 0 0 1-.93 1.061c-.423.255-.913.383-1.47.383a3.412 3.412 0 0 1-1.548-.348 2.754 2.754 0 0 1-1.095-.957 2.417 2.417 0 0 1-.4-1.356c0-.627.159-1.12.478-1.479.319-.36.837-.62 1.556-.782.72-.163 1.71-.244 2.974-.244h.435v-.4c0-.568-.121-.983-.365-1.243-.243-.261-.638-.392-1.183-.392-.336 0-.678.05-1.026.148-.348.099-.76.24-1.235.426-.301.15-.521.226-.66.226a.654.654 0 0 1-.514-.226c-.133-.15-.2-.348-.2-.591a.89.89 0 0 1 .148-.513c.099-.145.264-.281.496-.409a5.67 5.67 0 0 1 1.452-.522 7.493 7.493 0 0 1 1.661-.191c1.183 0 2.061.293 2.635.878zm-1.757 5.827c.366-.389.548-.89.548-1.505v-.365h-.313c-.777 0-1.38.035-1.809.104-.429.07-.736.192-.921.366-.186.174-.279.411-.279.713 0 .37.13.675.392.913.26.237.582.356.965.356.58 0 1.052-.194 1.417-.582zm10.114 1.278c0 .278-.113.49-.34.635-.225.145-.547.206-.964.182l-.47-.034c-1.948-.14-2.922-1.183-2.922-3.13v-3.792h-.87c-.313 0-.553-.07-.721-.21-.168-.138-.252-.341-.252-.608 0-.267.084-.47.252-.609.168-.139.408-.208.721-.208h.87v-1.6c0-.313.099-.563.296-.748.197-.186.464-.279.8-.279.324 0 .585.093.782.279.198.185.296.435.296.748v1.6h1.478c.314 0 .554.07.722.208.168.14.252.342.252.61 0 .266-.084.469-.252.608-.168.139-.408.209-.722.209h-1.478v3.948c0 .858.394 1.316 1.183 1.374l.47.034c.58.035.869.296.869.783zm7.453-7.105c.574.586.86 1.476.86 2.67v4.244c0 .313-.092.56-.278.739-.185.18-.44.27-.765.27-.302 0-.548-.093-.74-.279-.19-.185-.286-.429-.286-.73v-.383a2.27 2.27 0 0 1-.93 1.061c-.424.255-.914.383-1.47.383a3.412 3.412 0 0 1-1.548-.348 2.754 2.754 0 0 1-1.096-.957 2.417 2.417 0 0 1-.4-1.356c0-.627.16-1.12.478-1.479.32-.36.838-.62 1.557-.782.719-.163 1.71-.244 2.974-.244h.435v-.4c0-.568-.122-.983-.365-1.243-.244-.261-.638-.392-1.183-.392-.336 0-.678.05-1.026.148-.348.099-.76.24-1.235.426-.302.15-.522.226-.661.226a.654.654 0 0 1-.513-.226c-.133-.15-.2-.348-.2-.591a.89.89 0 0 1 .148-.513c.098-.145.264-.281.495-.409a5.67 5.67 0 0 1 1.453-.522 7.493 7.493 0 0 1 1.66-.191c1.183 0 2.062.293 2.636.878zm-1.757 5.827c.365-.389.548-.89.548-1.505v-.365h-.313c-.777 0-1.38.035-1.81.104-.428.07-.735.192-.92.366-.186.174-.28.411-.28.713 0 .37.131.675.392.913.261.237.583.356.965.356.58 0 1.053-.194 1.418-.582zm17.062-5.879c.493.55.739 1.44.739 2.67v4.278c0 .337-.102.595-.304.774-.203.18-.467.27-.792.27-.313 0-.57-.09-.774-.27-.203-.18-.304-.437-.304-.774v-4.278c0-.638-.113-1.093-.34-1.365-.225-.273-.57-.41-1.034-.41-.568 0-1.02.195-1.357.583-.336.389-.504.92-.504 1.592v3.878c0 .337-.102.595-.304.774-.203.18-.461.27-.774.27s-.574-.09-.783-.27c-.209-.18-.313-.437-.313-.774v-4.278c0-.638-.113-1.093-.34-1.365-.225-.273-.57-.41-1.034-.41-.568 0-1.018.195-1.348.583-.33.389-.496.92-.496 1.592v3.878c0 .337-.104.595-.313.774-.208.18-.47.27-.782.27-.313 0-.571-.09-.774-.27-.203-.18-.305-.437-.305-.774v-6.73c0-.325.105-.574.313-.748.21-.174.47-.261.783-.261.301 0 .548.084.74.252.19.168.286.409.286.722v.417a2.726 2.726 0 0 1 1.07-1.06c.446-.244.96-.366 1.539-.366 1.275 0 2.128.533 2.557 1.6a2.874 2.874 0 0 1 1.13-1.165 3.294 3.294 0 0 1 1.687-.435c.928 0 1.638.275 2.13.826zm9.27.052c.574.586.86 1.476.86 2.67v4.244c0 .313-.092.56-.278.739-.185.18-.44.27-.765.27-.301 0-.548-.093-.739-.279-.191-.185-.287-.429-.287-.73v-.383a2.27 2.27 0 0 1-.93 1.061c-.424.255-.914.383-1.47.383a3.412 3.412 0 0 1-1.548-.348 2.754 2.754 0 0 1-1.096-.957 2.417 2.417 0 0 1-.4-1.356c0-.627.16-1.12.479-1.479.318-.36.837-.62 1.556-.782.719-.163 1.71-.244 2.974-.244h.435v-.4c0-.568-.122-.983-.365-1.243-.244-.261-.638-.392-1.183-.392-.336 0-.678.05-1.026.148-.348.099-.76.24-1.235.426-.301.15-.522.226-.66.226a.654.654 0 0 1-.514-.226c-.133-.15-.2-.348-.2-.591a.89.89 0 0 1 .148-.513c.099-.145.264-.281.496-.409a5.67 5.67 0 0 1 1.452-.522 7.493 7.493 0 0 1 1.66-.191c1.184 0 2.062.293 2.636.878zm-1.757 5.827c.365-.389.548-.89.548-1.505v-.365h-.313c-.777 0-1.38.035-1.809.104-.429.07-.736.192-.922.366-.185.174-.278.411-.278.713 0 .37.13.675.391.913.261.237.583.356.966.356.58 0 1.052-.194 1.417-.582zm11.67-6.148c.574.37 1.02.895 1.34 1.574.318.678.478 1.458.478 2.339s-.16 1.652-.478 2.313c-.32.66-.763 1.171-1.33 1.53-.57.36-1.224.54-1.966.54-.603 0-1.142-.128-1.618-.383a2.685 2.685 0 0 1-1.095-1.06v3.547c0 .302-.099.54-.296.713-.197.174-.458.261-.783.261-.324 0-.588-.093-.791-.278a.943.943 0 0 1-.304-.73v-9.862c0-.313.095-.562.286-.748.192-.185.45-.278.774-.278.325 0 .586.093.783.278.197.186.296.435.296.748v.435a2.668 2.668 0 0 1 1.104-1.105c.481-.26 1.03-.391 1.644-.391.73 0 1.382.185 1.956.557zm-.93 5.904c.383-.47.574-1.133.574-1.991 0-.881-.191-1.566-.574-2.053-.383-.486-.916-.73-1.6-.73-.696 0-1.232.238-1.609.713s-.565 1.154-.565 2.035c0 .87.188 1.542.565 2.017.377.476.913.714 1.609.714.684 0 1.217-.235 1.6-.705zM155 21.986v-8.05a1.037 1.037 0 1 1 2.074 0v2.742c.505-.682 1.2-1.187 2.279-1.187 1.705 0 3.329 1.337 3.329 3.78v.027c0 2.442-1.596 3.78-3.33 3.78-1.105 0-1.787-.505-2.278-1.092v.013c0 .56-.464 1.024-1.037 1.024A1.037 1.037 0 0 1 155 21.986zm3.82-.669c.97 0 1.788-.791 1.788-2.02v-.026c0-1.215-.819-2.02-1.787-2.02-.97 0-1.774.805-1.774 2.02v.027c0 1.214.805 2.02 1.774 2.02zm6.768 3.848a3.12 3.12 0 0 1-1.132-.19c-.3-.11-.655-.356-.655-.86 0-.505.396-.847.819-.847.163 0 .259.028.34.055.178.055.287.082.437.082.369 0 .546-.068.737-.437l.068-.163-2.497-5.786a1.513 1.513 0 0 1-.109-.477c0-.587.45-.996 1.024-.996.518 0 .818.286.996.777l1.582 4.257 1.529-4.243c.163-.437.464-.791.996-.791s.982.409.982.955c0 .163-.054.395-.095.49l-2.552 6.127c-.614 1.488-1.228 2.047-2.47 2.047z"></path></g></g></svg>